# xmcd
#
# Track frame offsets:
#	150
#	11528
#	24584
#	36568
#	47634
#	60268
#	73793
#	87305
#	99320
#	114673
#	124847
#	140792
#	155559
#	167578
#
# Disc length: 2371
#
# Revision: 1
# Processed by: cddbd v1.5.1PL0 Copyright (c) Steve Scherf et al.
# Submitted via: CDex 1.50beta10
# Normalized: r0:TDELIM( - )
#
DISCID=bd09410e
DTITLE=Various Artist - American Blues Volume 2
DYEAR=1900
DGENRE=Blues
TTITLE0=Junior Wells - Little By Little
TTITLE1=Detroit Junior - Call My Job
TTITLE2=Jerry McCain - Crazy About The Entertainers
TTITLE3=Bobby Rush - Bowlegged Woman, Knock-Kneed Man, Pt. 1
TTITLE4=Big Mac - Rough Dried Women
TTITLE5=Lowell Fulson - My Baby
TTITLE6=Buddy Guy - Sit And Cry
TTITLE7=Earl Hooker - Blue Guitar
TTITLE8=Memphis Slim - Born With The Blues
TTITLE9=Koko Taylor - Honky Tonky
TTITLE10=Buster Benton - Spider In My Stew
TTITLE11=Willie Mabon - I'm The Fixer
TTITLE12=Clarence "Gatemouth" Brown - Left Over Blues
TTITLE13=Jackie Brenston - Want You To Rock Me
EXTD=
EXTT0=
EXTT1=
EXTT2=
EXTT3=
EXTT4=
EXTT5=
EXTT6=
EXTT7=
EXTT8=
EXTT9=
EXTT10=
EXTT11=
EXTT12=
EXTT13=
PLAYORDER=
